<?xml version="1.0" encoding="UTF-8"?>
<svg version="1.1" xmlns="http://www.w3.org/2000/svg" width="512" height="512">
<path d="M0 0 C168.96 0 337.92 0 512 0 C512 168.96 512 337.92 512 512 C343.04 512 174.08 512 0 512 C0 343.04 0 174.08 0 0 Z " fill="#000000" transform="translate(0,0)"/>
<path d="M0 0 C84.64377682 0 84.64377682 0 109 5 C109.75474609 5.15275391 110.50949219 5.30550781 111.28710938 5.46289062 C141.26787917 11.79188408 167.14690561 27.50207181 184.26074219 53.0703125 C190.93849154 63.36497104 197 74.37197844 197 87 C197.66 87 198.32 87 199 87 C199.31919939 88.31088682 199.62985947 89.62385248 199.9375 90.9375 C200.11152344 91.66839844 200.28554688 92.39929688 200.46484375 93.15234375 C201.85487363 100.54892609 202.15877959 107.89492332 202.16796875 115.40625 C202.17129715 116.37099243 202.17462555 117.33573486 202.17805481 118.32971191 C202.18308678 120.35668465 202.1854643 122.38366556 202.18530273 124.41064453 C202.18749385 127.49135057 202.20570219 130.57170064 202.22460938 133.65234375 C202.22754327 135.63281129 202.22952809 137.61328051 202.23046875 139.59375 C202.23765427 140.50338501 202.24483978 141.41302002 202.25224304 142.35021973 C202.23169842 148.16781182 201.43091886 153.37374494 200 159 C199.51457613 161.4779491 199.03508977 163.95707121 198.5625 166.4375 C196.76966526 175.38374535 195.09002115 182.39814347 190 190 C188.93032504 192.17394139 187.88967042 194.36234781 186.875 196.5625 C183.21005062 204.18939132 178.3576039 210.49369711 173 217 C172.48824219 217.67675781 171.97648438 218.35351562 171.44921875 219.05078125 C158.30765863 235.91384512 134.56420133 244.72163311 115 251 C114.03380737 251.35421776 114.03380737 251.35421776 113.0480957 251.71559143 C90.01040497 260.00652725 62.43200165 257.35426871 38.375 257.1875 C19.379375 257.0946875 19.379375 257.0946875 0 257 C0 218.06 0 179.12 0 139 C-3.3 138.67 -6.6 138.34 -10 138 C-12.06582572 137.63378822 -14.12550166 137.22833778 -16.171875 136.765625 C-17.24179688 136.52392578 -18.31171875 136.28222656 -19.4140625 136.03320312 C-21.06535156 135.64551758 -21.06535156 135.64551758 -22.75 135.25 C-24.47089844 134.8468457 -24.47089844 134.8468457 -26.2265625 134.43554688 C-44.77764629 129.9870727 -62.26469797 123.52262008 -73.66015625 107.234375 C-83.62951602 90.60908699 -85.34916315 69.7598401 -81.1640625 51.09375 C-76.97923135 35.0326301 -66.60172386 22.24678596 -53 13 C-46.31580366 9.14171389 -39.4341958 6.07115049 -32 4 C-31.34257812 3.79503906 -30.68515625 3.59007813 -30.0078125 3.37890625 C-22.49283575 1.32292205 -14.72009441 1.82949485 -7 2 C-7 5.63 -7 9.26 -7 13 C-8.1859375 13.01417969 -9.371875 13.02835938 -10.59375 13.04296875 C-28.51479885 13.47870498 -43.67446894 17.20008403 -57.25 29.6875 C-67.87573903 40.98962078 -71.55416065 53.94871103 -71.3125 69.125 C-71.31572266 70.14464844 -71.31894531 71.16429687 -71.32226562 72.21484375 C-71.22040713 86.64170995 -67.27627067 97.2438873 -57.26171875 107.8046875 C-52.62652639 112.30378613 -48.23823111 115.19183673 -42.12109375 117.26171875 C-40 118 -40 118 -37.97265625 118.89453125 C-26.0369031 124.15968774 -12.71677813 126.45664437 0 129 C0 86.43 0 43.86 0 0 Z " fill="#010101" transform="translate(210,113)"/>
<path d="M0 0 C84.64377682 0 84.64377682 0 109 5 C109.75474609 5.15275391 110.50949219 5.30550781 111.28710938 5.46289062 C141.26787917 11.79188408 167.14690561 27.50207181 184.26074219 53.0703125 C190.93849154 63.36497104 197 74.37197844 197 87 C197.66 87 198.32 87 199 87 C199.31919939 88.31088682 199.62985947 89.62385248 199.9375 90.9375 C200.11152344 91.66839844 200.28554688 92.39929688 200.46484375 93.15234375 C201.85487363 100.54892609 202.15877959 107.89492332 202.16796875 115.40625 C202.17129715 116.37099243 202.17462555 117.33573486 202.17805481 118.32971191 C202.18308678 120.35668465 202.1854643 122.38366556 202.18530273 124.41064453 C202.18749385 127.49135057 202.20570219 130.57170064 202.22460938 133.65234375 C202.22754327 135.63281129 202.22952809 137.61328051 202.23046875 139.59375 C202.23765427 140.50338501 202.24483978 141.41302002 202.25224304 142.35021973 C202.23169842 148.16781182 201.43091886 153.37374494 200 159 C199.51457613 161.4779491 199.03508977 163.95707121 198.5625 166.4375 C196.76966526 175.38374535 195.09002115 182.39814347 190 190 C188.93032504 192.17394139 187.88967042 194.36234781 186.875 196.5625 C183.21005062 204.18939132 178.3576039 210.49369711 173 217 C172.48824219 217.67675781 171.97648438 218.35351562 171.44921875 219.05078125 C158.30765863 235.91384512 134.56420133 244.72163311 115 251 C114.03380737 251.35421776 114.03380737 251.35421776 113.0480957 251.71559143 C90.01040497 260.00652725 62.43200165 257.35426871 38.375 257.1875 C19.379375 257.0946875 19.379375 257.0946875 0 257 C0 218.06 0 179.12 0 139 C-3.3 138.67 -6.6 138.34 -10 138 C-12.06582572 137.63378822 -14.12550166 137.22833778 -16.171875 136.765625 C-17.24179688 136.52392578 -18.31171875 136.28222656 -19.4140625 136.03320312 C-21.06535156 135.64551758 -21.06535156 135.64551758 -22.75 135.25 C-24.47089844 134.8468457 -24.47089844 134.8468457 -26.2265625 134.43554688 C-44.77764629 129.9870727 -62.26469797 123.52262008 -73.66015625 107.234375 C-83.62951602 90.60908699 -85.34916315 69.7598401 -81.1640625 51.09375 C-76.97923135 35.0326301 -66.60172386 22.24678596 -53 13 C-46.31580366 9.14171389 -39.4341958 6.07115049 -32 4 C-31.34257812 3.79503906 -30.68515625 3.59007813 -30.0078125 3.37890625 C-22.49283575 1.32292205 -14.72009441 1.82949485 -7 2 C-7 5.63 -7 9.26 -7 13 C-8.1859375 13.01417969 -9.371875 13.02835938 -10.59375 13.04296875 C-28.51479885 13.47870498 -43.67446894 17.20008403 -57.25 29.6875 C-67.87573903 40.98962078 -71.55416065 53.94871103 -71.3125 69.125 C-71.31572266 70.14464844 -71.31894531 71.16429687 -71.32226562 72.21484375 C-71.22040713 86.64170995 -67.27627067 97.2438873 -57.26171875 107.8046875 C-52.62652639 112.30378613 -48.23823111 115.19183673 -42.12109375 117.26171875 C-40 118 -40 118 -37.97265625 118.89453125 C-26.0369031 124.15968774 -12.71677813 126.45664437 0 129 C0 86.43 0 43.86 0 0 Z M11 10 C11 50.26 11 90.52 11 132 C17.93204379 134.78306814 17.93204379 134.78306814 24.90625 137.45703125 C37.00065797 142.01872643 49.97118571 148.74277865 56.08984375 160.84765625 C63.25320716 177.78762723 63.69728233 197.78735851 57 215 C50.63107153 229.88664435 39.4961435 239.33960974 25 246 C25 242.37 25 238.74 25 235 C27.475 234.01 27.475 234.01 30 233 C41.97920234 225.55003671 48.16797595 214.03948229 51.61328125 200.609375 C53.65243292 186.85025059 52.36290114 172.47642729 44 161 C37.00403968 151.66425361 25.16791908 146.00446672 14 143 C13.01 143 12.02 143 11 143 C11 177.32 11 211.64 11 247 C28.7271875 247.185625 28.7271875 247.185625 46.8125 247.375 C50.48221924 247.42962402 54.15193848 247.48424805 57.93286133 247.54052734 C77.16259581 247.70553159 94.42033974 246.43111607 113 241 C113.89369797 240.74533966 114.78739594 240.49067932 115.70817566 240.228302 C140.77793842 233.02593428 161.79278014 219.30539558 175.19140625 196.36328125 C179.81904808 187.75766653 183.17591739 179.0839089 185.75 169.6875 C185.94875732 168.97835449 186.14751465 168.26920898 186.35229492 167.53857422 C189.73655241 154.38160234 190.35485896 140.73734863 190.31567383 127.21557617 C190.31249548 124.93425366 190.33617988 122.6542127 190.36132812 120.37304688 C190.40397845 110.23458149 189.21211559 100.90005521 187 91 C186.65014038 89.36393799 186.65014038 89.36393799 186.29321289 87.69482422 C183.52453473 75.09125666 178.49738906 63.49634468 171 53 C170.44441406 52.20980469 169.88882813 51.41960937 169.31640625 50.60546875 C151.36603899 26.2709062 122.2687289 16.68780357 93.73828125 11.54296875 C83.78399472 10.09715284 73.9748093 9.86567963 63.9296875 9.90234375 C62.56974326 9.90381764 61.20979844 9.90483559 59.84985352 9.90539551 C54.85822692 9.91059658 49.86661253 9.92455768 44.875 9.9375 C33.69625 9.958125 22.5175 9.97875 11 10 Z " fill="#EFEFEF" transform="translate(210,113)"/>
<path d="M0 0 C3.3 0 6.6 0 10 0 C10.4125 1.546875 10.825 3.09375 11.25 4.6875 C16.97690283 25.58304713 22.88585367 43.8439918 42.5703125 55.27734375 C57.41474763 62.73337552 73.73521403 63.35349177 90 64 C90 67.63 90 71.26 90 75 C86.97910522 75.02716089 83.95845871 75.04691657 80.9375 75.0625 C80.08994141 75.07087891 79.24238281 75.07925781 78.36914062 75.08789062 C70.86822462 75.11685169 64.20647168 74.12649984 57 72 C55.73929688 71.76216797 55.73929688 71.76216797 54.453125 71.51953125 C37.94811622 68.19622543 22.58915388 57.64725428 13.125 43.75 C5.25301209 30.31002065 0.78495762 15.50967978 0 0 Z " fill="#ECECEC" transform="translate(113,292)"/>
<path d="M0 0 C7.85200656 1.30560296 15.4223937 8.55175645 20.3125 14.55859375 C28.77799416 26.80612581 33.9698072 40.06220439 35 55 C31.78548731 56.60725635 28.56387464 56.05748185 25 56 C24.8040625 54.9584375 24.608125 53.916875 24.40625 52.84375 C21.64454545 39.22734583 16.91131927 24.38526063 6 15 C4.865625 14.401875 3.73125 13.80375 2.5625 13.1875 C0 11 0 11 -0.37109375 8.31640625 C-0.37465745 5.51890165 -0.25925643 2.78460605 0 0 Z " fill="#EFEFEF" transform="translate(235,124)"/>
<path d="M0 0 C9.08256881 -0.60550459 9.08256881 -0.60550459 13.125 2.0625 C15.47957169 5.75132897 15.61537417 7.69238083 15 12 C12.8 16.6 12.8 16.6 10 18 C8.29297265 18.06996014 6.58331997 18.08440154 4.875 18.0625 C3.26625 18.041875 1.6575 18.02125 0 18 C0 12.06 0 6.12 0 0 Z " fill="#080808" transform="translate(62,388)"/>
<path d="M0 0 C10.125 2.25 10.125 2.25 14 4 C10 5 10 5 2 2 C1.67 35.33 1.34 68.66 1 103 C4.96 103 8.92 103 13 103 C13 99.37 13 95.74 13 92 C13.33 92 13.66 92 14 92 C14 95.63 14 99.26 14 103 C14.94875 102.505 15.8975 102.01 16.875 101.5 C20 100 20 100 22 100 C22 100.66 22 101.32 22 102 C41.47 102 60.94 102 81 102 C81 102.33 81 102.66 81 103 C76.42214827 103.89288812 72.09493567 104.12137195 67.43408203 104.11352539 C66.6899449 104.11364593 65.94580776 104.11376646 65.17912102 104.11389065 C62.78865362 104.11314882 60.39826581 104.10555412 58.0078125 104.09765625 C56.52465858 104.09618457 55.04150415 104.09516525 53.55834961 104.09460449 C48.08055845 104.08937786 42.60277843 104.07541659 37.125 104.0625 C24.87375 104.041875 12.6225 104.02125 0 104 C0 69.68 0 35.36 0 0 Z " fill="#363636" transform="translate(221,256)"/>
<path d="M0 0 C0.66 0 1.32 0 2 0 C5.14819255 5.86215164 7.26375242 11.5811453 9 18 C8.01 18 7.02 18 6 18 C5.67 16.68 5.34 15.36 5 14 C2.03 13.67 -0.94 13.34 -4 13 C-4.66 14.32 -5.32 15.64 -6 17 C-5.34496718 12.94180817 -4.05440879 9.46028718 -2.4375 5.6875 C-1.75494141 4.08455078 -1.75494141 4.08455078 -1.05859375 2.44921875 C-0.53458984 1.23685547 -0.53458984 1.23685547 0 0 Z " fill="#5F5F5F" transform="translate(355,388)"/>
<path d="M0 0 C0.66 0 1.32 0 2 0 C3.0063655 2.43504509 4.00526413 4.87270864 5 7.3125 C5.28617187 8.00279297 5.57234375 8.69308594 5.8671875 9.40429688 C7.08910744 12.41545674 8 14.71886984 8 18 C7.34 18 6.68 18 6 18 C5.67 16.35 5.34 14.7 5 13 C3.54052295 13.06006078 2.08220728 13.1488689 0.625 13.25 C-0.18710937 13.29640625 -0.99921875 13.3428125 -1.8359375 13.390625 C-4.18838927 13.7922092 -4.18838927 13.7922092 -5.2890625 16.046875 C-5.52367187 16.69140625 -5.75828125 17.3359375 -6 18 C-6.33 17.34 -6.66 16.68 -7 16 C-6.11588959 13.42085672 -5.1740129 10.94813753 -4.125 8.4375 C-3.84269531 7.73947266 -3.56039063 7.04144531 -3.26953125 6.32226562 C-1.1541718 1.1541718 -1.1541718 1.1541718 0 0 Z " fill="#666666" transform="translate(271,388)"/>
<path d="M0 0 C0.66 0 1.32 0 2 0 C3.03251062 2.43313372 4.05119521 4.87056892 5.0625 7.3125 C5.35705078 8.00279297 5.65160156 8.69308594 5.95507812 9.40429688 C8.11328125 14.66015625 8.11328125 14.66015625 7 18 C6.67 16.35 6.34 14.7 6 13 C4.54052295 13.06006078 3.08220728 13.1488689 1.625 13.25 C0.81289063 13.29640625 0.00078125 13.3428125 -0.8359375 13.390625 C-3.18838927 13.7922092 -3.18838927 13.7922092 -4.2890625 16.046875 C-4.52367187 16.69140625 -4.75828125 17.3359375 -5 18 C-5.66 18 -6.32 18 -7 18 C-5.80771472 13.2308589 -4.20458837 9.14073277 -1.90234375 4.796875 C-0.86945308 2.84692807 -0.86945308 2.84692807 0 0 Z " fill="#686868" transform="translate(419,388)"/>
<path d="M0 0 C0.99 0 1.98 0 3 0 C3.5775 1.03125 4.155 2.0625 4.75 3.125 C6.68979442 6.52656807 8.79209563 9.76699717 11 13 C11.33 8.71 11.66 4.42 12 0 C12.66 0 13.32 0 14 0 C14 5.94 14 11.88 14 18 C10.06322574 16.68774191 9.1728218 14.8038606 6.8125 11.4375 C6.09707031 10.42558594 5.38164062 9.41367187 4.64453125 8.37109375 C4.10183594 7.58863281 3.55914062 6.80617188 3 6 C2.67 9.96 2.34 13.92 2 18 C1.34 18 0.68 18 0 18 C0 12.06 0 6.12 0 0 Z " fill="#606060" transform="translate(436,388)"/>
<path d="M0 0 C0.66 0 1.32 0 2 0 C3.01180498 2.05673453 4.00901477 4.12065348 5 6.1875 C5.556875 7.33605469 6.11375 8.48460937 6.6875 9.66796875 C7.91763675 12.79090519 8.29804612 14.70286482 8 18 C7.34 17.34 6.68 16.68 6 16 C6 15.01 6 14.02 6 13 C2.7 13 -0.6 13 -4 13 C-4.33 14.65 -4.66 16.3 -5 18 C-6.39214652 13.82356045 -4.70664266 11.16562207 -3.0625 7.3125 C-2.77181641 6.61060547 -2.48113281 5.90871094 -2.18164062 5.18554688 C-1.46289687 3.45349225 -0.73254669 1.72626219 0 0 Z " fill="#6C6C6C" transform="translate(133,388)"/>
<path d="M0 0 C4.08288689 1.3609623 4.88685817 3.47953322 7.1875 7.0625 C7.90292969 8.16722656 8.61835938 9.27195312 9.35546875 10.41015625 C9.89816406 11.26480469 10.44085938 12.11945313 11 13 C11.33 8.71 11.66 4.42 12 0 C12.66 0 13.32 0 14 0 C14 5.94 14 11.88 14 18 C13.01 18 12.02 18 11 18 C10.4225 16.96875 9.845 15.9375 9.25 14.875 C7.31020558 11.47343193 5.20790437 8.23300283 3 5 C2.67 8.96 2.34 12.92 2 17 C1.34 17 0.68 17 0 17 C0 11.39 0 5.78 0 0 Z " fill="#626262" transform="translate(150,388)"/>
<path d="M0 0 C3.13161332 1.56580666 3.45604434 4.17815522 4.6875 7.375 C5.14511719 8.53773438 5.60273437 9.70046875 6.07421875 10.8984375 C7 14 7 14 6 17 C5.67 15.68 5.34 14.36 5 13 C3.54052295 13.06006078 2.08220728 13.1488689 0.625 13.25 C-0.18710938 13.29640625 -0.99921875 13.3428125 -1.8359375 13.390625 C-4.18838927 13.7922092 -4.18838927 13.7922092 -5.2890625 16.046875 C-5.52367188 16.69140625 -5.75828125 17.3359375 -6 18 C-6.33 17.34 -6.66 16.68 -7 16 C-6.11588959 13.42085672 -5.1740129 10.94813753 -4.125 8.4375 C-3.84269531 7.73947266 -3.56039062 7.04144531 -3.26953125 6.32226562 C-1.1541718 1.1541718 -1.1541718 1.1541718 0 0 Z " fill="#717171" transform="translate(92,388)"/>
<path d="M0 0 C9.08256881 -0.60550459 9.08256881 -0.60550459 13.125 2.0625 C15.47957169 5.75132897 15.61537417 7.69238083 15 12 C12.8 16.6 12.8 16.6 10 18 C8.29297265 18.06996014 6.58331997 18.08440154 4.875 18.0625 C3.26625 18.041875 1.6575 18.02125 0 18 C0 12.06 0 6.12 0 0 Z M2 1 C2 5.95 2 10.9 2 16 C8.34635893 16.41880893 8.34635893 16.41880893 11.4375 15.0625 C13.65558023 12.13463409 13.56044045 9.69906049 13.37890625 6.09765625 C13.13787244 3.8587936 13.13787244 3.8587936 11.4375 1.9375 C8.34635893 0.58119107 8.34635893 0.58119107 2 1 Z " fill="#717171" transform="translate(62,388)"/>
<path d="M0 0 C0.94875 0.04125 1.8975 0.0825 2.875 0.125 C3.535 1.445 4.195 2.765 4.875 4.125 C4.215 3.795 3.555 3.465 2.875 3.125 C0.87539988 3.085008 -1.12547242 3.08153201 -3.125 3.125 C-3.16789755 5.05609581 -3.16789755 5.05609581 -2.125 7.125 C1.36297488 8.91771391 1.36297488 8.91771391 4.875 10.125 C5 13 5 13 4.875 16.125 C2.875 18.125 2.875 18.125 -0.625 18.4375 C-1.78 18.334375 -2.935 18.23125 -4.125 18.125 C-4.785 17.135 -5.445 16.145 -6.125 15.125 C-5.795 14.135 -5.465 13.145 -5.125 12.125 C-4.135 13.61 -4.135 13.61 -3.125 15.125 C-0.04134129 15.3752157 -0.04134129 15.3752157 2.875 15.125 C3.205 13.805 3.535 12.485 3.875 11.125 C2.76125 11.021875 1.6475 10.91875 0.5 10.8125 C-1.294375 10.4721875 -1.294375 10.4721875 -3.125 10.125 C-5.27415785 6.90126323 -5.50786803 5.85796326 -5.125 2.125 C-3.125 0.125 -3.125 0.125 0 0 Z " fill="#6C6C6C" transform="translate(251.125,387.875)"/>
<path d="M0 0 C0.66 0 1.32 0 2 0 C2.50512244 1.60256108 3.00391627 3.20711792 3.5 4.8125 C3.7784375 5.70582031 4.056875 6.59914063 4.34375 7.51953125 C5 10 5 10 5 13 C7.23339896 12.16745087 7.23339896 12.16745087 7.8515625 9.71484375 C8.10679688 8.79832031 8.36203125 7.88179688 8.625 6.9375 C8.88539062 6.01839844 9.14578125 5.09929687 9.4140625 4.15234375 C9.60742188 3.44207031 9.80078125 2.73179687 10 2 C10.66 2 11.32 2 12 2 C12.33 1.34 12.66 0.68 13 0 C12.31583566 4.17576168 10.98634991 7.88080407 9.4375 11.8125 C8.98246094 12.97394531 8.52742188 14.13539063 8.05859375 15.33203125 C7.70925781 16.21246094 7.35992187 17.09289062 7 18 C6.34 18 5.68 18 5 18 C4.15875684 15.75267898 3.32685168 13.50261215 2.5 11.25 C2.26152344 10.61578125 2.02304688 9.9815625 1.77734375 9.328125 C0.55198242 5.96713393 0 3.63128413 0 0 Z " fill="#5A5A5A" transform="translate(107,388)"/>
<path d="M0 0 C2.97 0 5.94 0 9 0 C9 0.33 9 0.66 9 1 C6.36 1 3.72 1 1 1 C1 3.31 1 5.62 1 8 C3.97 8 6.94 8 10 8 C10 8.66 10 9.32 10 10 C7.36 10 4.72 10 2 10 C2 11.98 2 13.96 2 16 C4.64 16 7.28 16 10 16 C10 16.66 10 17.32 10 18 C6.7 18 3.4 18 0 18 C0 12.06 0 6.12 0 0 Z " fill="#696969" transform="translate(173,388)"/>
<path d="M0 0 C0.33 0 0.66 0 1 0 C1 2.64 1 5.28 1 8 C4.3 8 7.6 8 11 8 C11 5.36 11 2.72 11 0 C11.66 0 12.32 0 13 0 C13 5.61 13 11.22 13 17 C12.34 17 11.68 17 11 17 C11 14.36 11 11.72 11 9 C7.7 9 4.4 9 1 9 C1 11.64 1 14.28 1 17 C0.67 17 0.34 17 0 17 C0 11.39 0 5.78 0 0 Z " fill="#7C7C7C" transform="translate(212,388)"/>
<path d="M0 0 C0.33 0 0.66 0 1 0 C1 2.64 1 5.28 1 8 C4.3 8 7.6 8 11 8 C11 5.36 11 2.72 11 0 C11.66 0 12.32 0 13 0 C13 5.61 13 11.22 13 17 C12.67 17 12.34 17 12 17 C11.67 14.69 11.34 12.38 11 10 C7.7 9.67 4.4 9.34 1 9 C1 11.64 1 14.28 1 17 C0.67 17 0.34 17 0 17 C0 11.39 0 5.78 0 0 Z " fill="#787878" transform="translate(391,388)"/>
<path d="M0 0 C0.33 0 0.66 0 1 0 C1 5.61 1 11.22 1 17 C2.588125 16.505 4.17625 16.01 5.8125 15.5 C8.75578485 14.58261252 10.90124328 14 14 14 C12.625 16 12.625 16 10 18 C6.59290617 18.36313853 3.4417386 18.18114414 0 18 C0 12.06 0 6.12 0 0 Z " fill="#545454" transform="translate(62,388)"/>
<path d="M0 0 C3 1 3 1 4.75 4.375 C6 8 6 8 5 11 C5 10.34 5 9.68 5 9 C4.01 9 3.02 9 2 9 C1.67 11.64 1.34 14.28 1 17 C0.67 17 0.34 17 0 17 C0 11.39 0 5.78 0 0 Z " fill="#818181" transform="translate(288,388)"/>
<path d="M0 0 C0.66 0 1.32 0 2 0 C2.33 5.61 2.66 11.22 3 17 C1.0549 14.08235 0.54723683 12.37462715 0 9 C-0.99 9.33 -1.98 9.66 -3 10 C-2.39009109 6.44219804 -1.4216319 3.3171411 0 0 Z " fill="#7B7B7B" transform="translate(303,388)"/>
<path d="M0 0 C0.66 0.33 1.32 0.66 2 1 C0.06852571 2.9853759 -1.86966609 4.96329392 -3.8125 6.9375 C-4.35970703 7.50146484 -4.90691406 8.06542969 -5.47070312 8.64648438 C-9.66015625 12.88671875 -9.66015625 12.88671875 -13 14 C-10.38256198 8.10428565 -5.28256657 3.59214527 0 0 Z " fill="#2C2C2C" transform="translate(161,135)"/>
<path d="M0 0 C0.66 0 1.32 0 2 0 C3.25664978 2.90600261 4 4.79604584 4 8 C2.02 8 0.04 8 -2 8 C-1.47731534 5.23723823 -0.89130413 2.6739124 0 0 Z " fill="#0C0C0C" transform="translate(133,391)"/>
<path d="M0 0 C2.46278801 2.46278801 2.99771255 4.70676982 4 8 C1.69 8 -0.62 8 -3 8 C-1.125 1.125 -1.125 1.125 0 0 Z " fill="#0C0C0C" transform="translate(92,391)"/>
<path d="M0 0 C0.66 0 1.32 0 2 0 C2.66 2.64 3.32 5.28 4 8 C2.02 8 0.04 8 -2 8 C-1.33333333 5.33333333 -0.66666667 2.66666667 0 0 Z " fill="#0F0F0F" transform="translate(355,391)"/>
<path d="M0 0 C0.66 0.33 1.32 0.66 2 1 C2.73075648 3.3140622 3.40138258 5.64828869 4 8 C2.02 8 0.04 8 -2 8 C-1.125 2.25 -1.125 2.25 0 0 Z " fill="#0D0D0D" transform="translate(271,391)"/>
<path d="M0 0 C2 1.3125 2 1.3125 4 3 C4 3.99 4 4.98 4 6 C2.02 6 0.04 6 -2 6 C-1.125 1.125 -1.125 1.125 0 0 Z " fill="#090909" transform="translate(419,393)"/>
<path d="M0 0 C0.5259375 0.7425 0.5259375 0.7425 1.0625 1.5 C3.94374289 3.73063966 6.47009026 3.19980621 10 3 C9.67 3.99 9.34 4.98 9 6 C5.625 6.1875 5.625 6.1875 2 6 C0 3 0 3 0 0 Z " fill="#616161" transform="translate(245,400)"/>
<path d="M0 0 C2.12508244 3.18762365 2.5020163 5.26512223 3 9 C2.34 9 1.68 9 1 9 C0.67 7.35 0.34 5.7 0 4 C-2.97 4 -5.94 4 -9 4 C-9 3.67 -9 3.34 -9 3 C-6.03 3 -3.06 3 0 3 C0 2.01 0 1.02 0 0 Z " fill="#505050" transform="translate(276,397)"/>
<path d="M0 0 C0.99 0 1.98 0 3 0 C4.0625 1.8125 4.0625 1.8125 5 4 C4.67 4.99 4.34 5.98 4 7 C4 6.34 4 5.68 4 5 C2.68 5 1.36 5 0 5 C0 3.35 0 1.7 0 0 Z " fill="#4E4E4E" transform="translate(289,392)"/>
<path d="M0 0 C0.66 0 1.32 0 2 0 C2.33 2.31 2.66 4.62 3 7 C2.01 6.67 1.02 6.34 0 6 C-0.66 6.66 -1.32 7.32 -2 8 C-1.47731534 5.23723823 -0.89130413 2.6739124 0 0 Z " fill="#5B5B5B" transform="translate(419,388)"/>
<path d="M0 0 C0.66 0 1.32 0 2 0 C1.67 1.98 1.34 3.96 1 6 C0.01 6.33 -0.98 6.66 -2 7 C-1.125 2.25 -1.125 2.25 0 0 Z " fill="#4C4C4C" transform="translate(302,391)"/>
<path d="M0 0 C0.33 0.66 0.66 1.32 1 2 C-2.625 6.875 -2.625 6.875 -6 8 C-4.55746343 4.63408134 -2.66735273 2.48952921 0 0 Z " fill="#BEBEBE" transform="translate(146,135)"/>
</svg>
